<?xml version="1.0" encoding="utf-8"?>
<!-- Generator: Adobe Illustrator 23.0.0, SVG Export Plug-In . SVG Version: 6.00 Build 0)  -->
<svg version="1.1" id="svg4300" xmlns:svg="http://www.w3.org/2000/svg"
	 xmlns="http://www.w3.org/2000/svg" xmlns:xlink="http://www.w3.org/1999/xlink" x="0px" y="0px" viewBox="0 0 222 222"
	 style="enable-background:new 0 0 222 222;" xml:space="preserve">
<style type="text/css">
	.st0{fill-rule:evenodd;clip-rule:evenodd;fill:#932279;}
	.st1{fill-rule:evenodd;clip-rule:evenodd;fill:#EFA724;}
	.st2{fill-rule:evenodd;clip-rule:evenodd;fill:#262577;}
	.st3{fill-rule:evenodd;clip-rule:evenodd;fill:#9CCD2A;}
	.st4{fill:#9CCD2A;stroke:#FFFFFF;stroke-width:3.5433;}
	.st5{fill:#932279;stroke:#FFFFFF;stroke-width:3.5433;}
	.st6{fill:#EFA724;stroke:#FFFFFF;stroke-width:3.5433;}
	.st7{fill:#262577;stroke:#FFFFFF;stroke-width:3.5433;}
	.st8{fill:none;stroke:#FFFFFF;stroke-width:3.5433;}
	.st9{fill:none;stroke:#FFFFFF;stroke-width:3.5431;}
</style>
<title  id="title3589">The CentOS Logo Vertical Version</title>
<g id="layer1" transform="translate(-64.032001,-432.25134)">
	<g id="g5189" transform="matrix(1.0008826,0,0,1.0094534,-0.05651152,-6.184848)">
		<g id="g3664" transform="matrix(1.0627252,0,0,1.0537063,198.76454,-518.47507)">
			<g id="g12802" transform="matrix(0,-1,1,0,-1934.5199,1337.4805)">
				<g id="g12804" transform="translate(16.279512,-899.16723)">
					<g id="g12806" transform="matrix(1.0666663,0,0,1,-26.935596,-4.1328125e-5)">
						<path id="path12808" class="st0" d="M324.4,2797.4l-5.4,5.8l-5.4-5.8v-40.8h-18l23.4-24.9l23,24.9h-17.6V2797.4z"/>
					</g>
					<g id="g12812" transform="matrix(1.0722788,0,0,1,-28.850792,-4.1328125e-5)">
					</g>
				</g>
			</g>
			<g id="g12768" transform="translate(-351.30671,-902.55818)">
				<g id="g12770" transform="translate(16.279512,-899.16723)">
					<g id="g12772" transform="matrix(1.0666663,0,0,1,-26.935596,-4.1328125e-5)">
						<path id="path12774" class="st1" d="M322.7,2797l-5.4,5.8l-5.4-5.8v-40.8h-18l23.4-24.9l23,24.9h-17.6V2797z"/>
					</g>
					<g id="g12778" transform="matrix(1.0722788,0,0,1,-28.850792,-4.1328125e-5)">
					</g>
				</g>
			</g>
			<g id="g12780" transform="matrix(0,1,-1,0,2787.8992,696.93451)">
				<g id="g12782" transform="matrix(1.0666663,0,0,1,-26.935596,-4.1328125e-5)">
					<path id="path12784" class="st2" d="M322.3,2798.9l-5.4,5.8l-5.4-5.8v-40.8h-18l23.4-24.9l23,24.9h-17.6V2798.9z"/>
				</g>
				<g id="g12788" transform="matrix(1.0722788,0,0,1,-28.850792,-4.1328125e-5)">
				</g>
			</g>
			<g id="g12790" transform="matrix(-1,0,0,-1,305.51863,2920.6937)">
				<g id="g12792" transform="translate(16.279512,-899.16723)">
					<g id="g12794" transform="matrix(1.0666663,0,0,1,-26.935596,-4.1328125e-5)">
						<path id="path12796" class="st3" d="M324.1,2799.3l-5.4,5.8l-5.4-5.8v-40.8h-18l23.4-24.9l23,24.9h-17.6V2799.3z"/>
					</g>
					<g id="g12800" transform="matrix(1.0722788,0,0,1,-28.850792,-4.1328125e-5)">
					</g>
				</g>
			</g>
			<g id="g12742" transform="translate(-749.79982,-1331.6428)">
				<path id="rect12744" class="st4" d="M671.2,2284.7h49.6v49.6h-49.6V2284.7z"/>
				<path id="rect12746" class="st5" d="M731.5,2284.7h49.6v49.6h-49.6V2284.7z"/>
				<path id="rect12748" class="st6" d="M731.5,2344.9h49.6v49.6h-49.6V2344.9z"/>
				<path id="rect12750" class="st7" d="M671.2,2344.9h49.6v49.6h-49.6V2344.9z"/>
			</g>
			<path id="rect12760" class="st8" d="M-101.3,1007.9l35.1-35.1l35.1,35.1l-35.1,35.1L-101.3,1007.9z"/>
			<path id="rect12762" class="st9" d="M-58.7,965.4l35.1-35.1l35.1,35.1l-35.1,35.1L-58.7,965.4z"/>
			<path id="rect12764" class="st8" d="M-16.1,1007.9l35.1-35.1l35.1,35.1L18.9,1043C18.9,1043-16.1,1007.9-16.1,1007.9z"/>
			<path id="rect12766" class="st8" d="M-58.7,1050.5l35.1-35.1l35.1,35.1l-35.1,35.1L-58.7,1050.5z"/>
		</g>
	</g>
</g>
</svg>
